<svg xmlns="http://www.w3.org/2000/svg" viewBox="0 0 512 512" role="img" aria-label="Criativa Field Ops">
  <rect width="512" height="512" rx="112" fill="#0F172A"/>
  <path d="M64 336h384v56c0 31-25 56-56 56H120c-31 0-56-25-56-56v-56Z" fill="#E65C5C"/>
  <path d="M128 176c0-57 43-100 104-100 35 0 66 15 86 40l-43 36c-10-13-25-22-43-22-28 0-48 20-48 46s20 46 48 46c18 0 33-8 43-22l43 36c-20 25-51 40-86 40-61 0-104-43-104-100Z" fill="#F8FAFC"/>
  <path d="M328 82h96v51h-39v137h-57V82Z" fill="#F8FAFC"/>
  <circle cx="384" cy="248" r="28" fill="#E65C5C"/>
</svg>
